<svg width="50" height="50" viewBox="0 0 50 50" fill="none" xmlns="http://www.w3.org/2000/svg">
<g clip-path="url(#clip0_24_8)">
<path d="M50 24.975C50 11.1875 38.8 0 25 0C11.2 0 0 11.1875 0 24.975C0 32.5688 3.45 39.4125 8.85 44.0062C8.9 44.0562 8.95 44.0563 8.95 44.1063C9.4 44.4563 9.85 44.8062 10.35 45.1562C10.6 45.3062 10.8 45.5031 11.05 45.7031C15.1831 48.5008 20.059 49.9973 25.05 50C30.041 49.9973 34.9169 48.5008 39.05 45.7031C39.3 45.5531 39.5 45.3563 39.75 45.2031C40.2 44.8563 40.7 44.5063 41.15 44.1563C41.2 44.1063 41.25 44.1062 41.25 44.0562C46.55 39.4094 50 32.5688 50 24.975ZM25 46.8531C20.3 46.8531 16 45.3531 12.45 42.8562C12.5 42.4562 12.6 42.0594 12.7 41.6594C12.9989 40.5757 13.4358 39.5349 14 38.5625C14.55 37.6125 15.2 36.7625 16 36.0125C16.75 35.2625 17.65 34.5656 18.55 34.0156C19.5 33.4656 20.5 33.0656 21.6 32.7656C22.7089 32.4686 23.852 32.3184 25 32.3188C28.4086 32.293 31.6923 33.6006 34.15 35.9625C35.3 37.1125 36.2 38.4615 36.85 40.0094C37.2 40.9094 37.45 41.8583 37.6 42.8562C33.9099 45.4505 29.5107 46.846 25 46.8531ZM17.35 23.7281C16.9103 22.7192 16.6888 21.6287 16.7 20.5281C16.7 19.4312 16.9 18.3312 17.35 17.3313C17.8 16.3313 18.4 15.4344 19.15 14.6844C19.9 13.9344 20.8 13.3375 21.8 12.8875C22.8 12.4375 23.9 12.2375 25 12.2375C26.15 12.2375 27.2 12.4375 28.2 12.8875C29.2 13.3375 30.1 13.9375 30.85 14.6844C31.6 15.4344 32.2 16.3344 32.65 17.3313C33.1 18.3312 33.3 19.4312 33.3 20.5281C33.3 21.6781 33.1 22.7281 32.65 23.725C32.2182 24.7116 31.608 25.61 30.85 26.375C30.0847 27.1318 29.1863 27.741 28.2 28.1719C26.1335 29.0193 23.8165 29.0193 21.75 28.1719C20.7637 27.741 19.8653 27.1318 19.1 26.375C18.3414 25.6208 17.7458 24.722 17.35 23.7281ZM40.55 40.3094C40.55 40.2094 40.5 40.1594 40.5 40.0594C40.0091 38.4947 39.2843 37.0133 38.35 35.6656C37.415 34.308 36.2669 33.1103 34.95 32.1187C33.9439 31.3616 32.8533 30.724 31.7 30.2188C32.2222 29.8694 32.708 29.4684 33.15 29.0219C33.8954 28.2859 34.5501 27.4634 35.1 26.5719C36.2112 24.7542 36.7834 22.6583 36.75 20.5281C36.7663 18.9515 36.4601 17.3882 35.85 15.9344C35.2484 14.5333 34.3827 13.2612 33.3 12.1875C32.2163 11.1283 30.9446 10.2805 29.55 9.6875C28.094 9.07767 26.5285 8.77244 24.95 8.79062C23.3713 8.77343 21.8058 9.07972 20.35 9.69063C18.9401 10.2763 17.6642 11.1429 16.6 12.2375C15.5353 13.3155 14.6867 14.5874 14.1 15.9844C13.4899 17.4382 13.1837 19.0015 13.2 20.5781C13.2 21.6781 13.35 22.7271 13.65 23.725C13.95 24.775 14.35 25.725 14.9 26.6219C15.4 27.5219 16.1 28.3219 16.85 29.0719C17.3 29.5219 17.8 29.9208 18.35 30.2687C17.1916 30.7845 16.1002 31.4393 15.1 32.2188C13.8 33.2188 12.65 34.4156 11.7 35.7156C10.7571 37.0582 10.0315 38.541 9.55 40.1094C9.5 40.2094 9.5 40.3094 9.5 40.3594C5.55 36.3625 3.1 30.9688 3.1 24.975C3.1 12.9375 12.95 3.09687 25 3.09687C37.05 3.09687 46.9 12.9375 46.9 24.975C46.8935 30.7249 44.6104 36.2382 40.55 40.3094Z" fill="white"/>
</g>
<defs>
<clipPath id="clip0_24_8">
<rect width="50" height="50" fill="white"/>
</clipPath>
</defs>
</svg>
