<svg width="70" height="70" viewBox="0 0 70 70" fill="none" xmlns="http://www.w3.org/2000/svg">
<g clip-path="url(#clip0_25_11)">
<path d="M7.99838 69.7244C6.68861 69.3793 5.55822 68.8713 4.5156 68.1598C3.63568 67.5591 2.34943 66.3171 1.86025 65.596C1.26279 64.715 0.576191 63.2068 0.296191 62.1606C0.0107223 61.0934 0.0063473 60.6684 0.000878551 35.0536C-0.00404332 9.56843 0.00169888 9.00789 0.281425 7.91277C1.271 4.03953 4.33486 1.09269 8.28658 0.213316C9.42271 -0.0393405 60.1782 -0.0833639 61.4037 0.166831C64.7219 0.845777 67.3299 2.84105 68.839 5.8557C70.0389 8.25238 69.9317 5.61507 69.9867 34.0703C70.0217 52.1752 69.9894 59.7762 69.874 60.7231C69.3337 65.1542 66.2827 68.5913 61.8924 69.7143C60.7691 70.0014 60.3783 70.0058 34.8797 69.9978C10.2255 69.9905 8.95951 69.9776 7.99838 69.7244Z" fill="#F06A35"/>
<path d="M44.9362 56.4577C48.0725 56.0301 50.5302 54.7728 52.8358 52.4174C54.5037 50.7134 55.5477 48.869 56.2302 46.4209C56.5135 45.404 56.5373 44.9088 56.5893 38.9383C56.6286 34.4318 56.5958 32.3211 56.4785 31.7885C56.3084 31.016 55.8264 30.2988 55.2762 29.9999C55.1067 29.9078 54.0222 29.7905 52.8659 29.7393C50.928 29.6532 50.7112 29.6155 50.0998 29.257C49.1296 28.6882 48.8625 28.0747 48.8597 26.4078C48.8545 23.2231 47.5292 20.2664 44.9107 17.5976C43.0451 15.6967 40.9639 14.4099 38.5889 13.6888C38.0201 13.516 36.7467 13.4572 32.4822 13.4072C25.7906 13.3279 24.3053 13.4652 22.027 14.3724C17.827 16.0453 14.8096 19.5707 13.7088 24.0907C13.5021 24.9397 13.4619 26.3 13.4129 34.1157C13.352 43.907 13.4192 45.3447 14.0309 47.285C14.5368 48.8882 15.0467 49.8706 16.0973 51.2649C18.0988 53.9213 21.0984 55.8395 24.0975 56.3815C25.5248 56.6393 43.1328 56.7038 44.9362 56.458" fill="white"/>
<path d="M44.3836 41.1362C45.541 42.2171 45.2968 44.1413 43.902 44.9315L42.4684 45.1648L34.0085 45.2627C28.3046 45.316 26.5907 45.2036 26.2404 45.0647L26.2295 45.06C25.541 44.7601 24.9 43.9272 24.7893 43.1884C24.6838 42.4848 25.0376 41.5177 25.5795 41.0268L25.7001 40.9218C26.2344 40.483 26.8491 40.4042 31.8894 40.3864L37.7182 40.3804C43.6105 40.3848 43.6622 40.4627 44.3836 41.1362ZM36.0784 25.1809C36.977 25.6348 37.3674 26.2746 37.3674 27.2937C37.3674 28.1786 37.0284 28.8085 36.2753 29.3166L36.1293 29.4098C35.7629 29.6286 35.4036 29.6666 32.5634 29.6887L30.7305 29.6991C28.4586 29.7038 26.7096 29.6562 26.4302 29.5791C24.8268 29.1372 24.2277 26.8368 25.4062 25.6471L25.5158 25.5382C26.1466 24.9271 26.548 24.8639 30.2441 24.8582L33.0293 24.8604C35.3831 24.8713 35.5709 24.9246 36.0784 25.1809Z" fill="#F06A35"/>
</g>
<defs>
<clipPath id="clip0_25_11">
<rect width="70" height="70" fill="white"/>
</clipPath>
</defs>
</svg>
